# xmcd
#
# Track frame offsets: 
#        150
#        21395
#        34820
#        47357
#        62102
#        76285
#        91012
#        108757
#        121057
#        136515
#        147337
#        157645
#
# Disc length: 2372 seconds
#
# Revision: 1
# Processed by: cddbd v1.5.2PL0 Copyright (c) Steve Scherf et al.
# Submitted via: ExactAudioCopy v0.99pb5
#
DISCID=8409420c
DTITLE=Pablo Milanés - Grandes Éxitos, Vol.1
DYEAR=1994
DGENRE=Latin
TTITLE0=Yolanda
TTITLE1=Yo Me Quedo
TTITLE2=Noche De Ronda
TTITLE3=Es Rubia El Cabello Suelto
TTITLE4=En Nombre De Los Nuevos
TTITLE5=Te Espera Una Noche De Éxito
TTITLE6=Mi Tripón
TTITLE7=La Enramada
TTITLE8=No Vivo En Una Sociedad Perfecta
TTITLE9=Franqueza
TTITLE10=Tormento Fiero
TTITLE11=Amo Esta Isla
EXTD=
EXTT0=
EXTT1=
EXTT2=
EXTT3=
EXTT4=
EXTT5=
EXTT6=
EXTT7=
EXTT8=
EXTT9=
EXTT10=
EXTT11=
PLAYORDER=
